<?xml version="1.0" standalone="no"?><!DOCTYPE svg PUBLIC "-//W3C//DTD SVG 1.1//EN" "http://www.w3.org/Graphics/SVG/1.1/DTD/svg11.dtd"><svg t="1615169277580" class="icon" viewBox="0 0 1024 1024" version="1.1" xmlns="http://www.w3.org/2000/svg" p-id="1142" width="32" height="32" xmlns:xlink="http://www.w3.org/1999/xlink"><defs><style type="text/css"></style></defs><path d="M981.333333 377.92a250.666667 250.666667 0 0 0-469.333333-122.666667 250.666667 250.666667 0 1 0-380.533333 313.813334L421.333333 859.253333a128 128 0 0 0 181.013334 0l290.133333-290.133333A249.92 249.92 0 0 0 981.333333 377.92z m-424.053333 436.106667a63.68 63.68 0 0 1-48 18.666666 66.506667 66.506667 0 0 1-43.946667-20.16L181.333333 528.586667v-1.44a186.666667 186.666667 0 1 1 296.32-178.986667A34.933333 34.933333 0 0 0 512 377.92a34.933333 34.933333 0 0 0 34.346667-29.76 186.666667 186.666667 0 1 1 296.853333 178.56V528z" fill="#333333" p-id="1143"></path></svg>