<?xml version="1.0" standalone="no"?><!DOCTYPE svg PUBLIC "-//W3C//DTD SVG 1.1//EN" "http://www.w3.org/Graphics/SVG/1.1/DTD/svg11.dtd"><svg t="1606122902608" class="icon" viewBox="0 0 1024 1024" version="1.1" xmlns="http://www.w3.org/2000/svg" p-id="1010" width="32" height="32" xmlns:xlink="http://www.w3.org/1999/xlink"><defs><style type="text/css"></style></defs><path d="M329.956 517.689a199.111 176.356 90 1 0 352.71 0 199.111 176.356 90 1 0-352.71 0z" p-id="1011" fill="#515151"></path><path d="M512 779.378c-216.178 0-392.533-176.356-438.044-227.556-17.067-22.755-17.067-51.2 0-73.955 51.2-51.2 221.866-227.556 438.044-227.556 216.178 0 392.533 176.356 438.044 227.556 17.067 22.755 17.067 51.2 0 73.955-45.51 51.2-221.866 227.556-438.044 227.556zM147.911 512c51.2 51.2 199.111 182.044 364.089 182.044S824.889 563.2 876.089 512C819.2 460.8 676.978 329.956 512 329.956S199.111 460.8 147.911 512z m739.556 17.067z" p-id="1012" fill="#515151"></path></svg>